<?xml version="1.0" encoding="UTF-8" standalone="no"?>
<!-- Created with Inkscape (http://www.inkscape.org/) -->

<svg
   xmlns:dc="http://purl.org/dc/elements/1.1/"
   xmlns:cc="http://creativecommons.org/ns#"
   xmlns:rdf="http://www.w3.org/1999/02/22-rdf-syntax-ns#"
   xmlns:svg="http://www.w3.org/2000/svg"
   xmlns="http://www.w3.org/2000/svg"
   version="1.1"
   width="5000"
   height="3500"
   viewBox="0 0 5000 3500"
   id="Layer_1"
   xml:space="preserve"><metadata
   id="metadata408"><rdf:RDF><cc:Work
       rdf:about=""><dc:format>image/svg+xml</dc:format><dc:type
         rdf:resource="http://purl.org/dc/dcmitype/StillImage" /><dc:title></dc:title></cc:Work></rdf:RDF></metadata><defs
   id="defs406" />
<rect
   width="5000"
   height="3500"
   x="0"
   y="0"
   id="rect364"
   style="fill:#efece4" />
<g
   id="g366">
	<path
   d="m 3520.789,726.51 v -37.018 h 62.122 v 148.922 h -79.993 c -31.486,0 -47.229,-17.159 -47.229,-51.484 V 585.246 c 0,-34.89 15.743,-52.335 47.229,-52.335 h 28.083 c 34.604,0 51.91,17.731 51.91,53.187 v 33.188 h -40.848 v -27.231 c 0,-14.746 -5.817,-22.125 -17.445,-22.125 h -10.212 c -11.913,0 -17.87,7.379 -17.87,22.125 v 187.216 c 0,14.753 5.957,22.126 17.87,22.126 h 27.657 V 726.51 h -21.274 z"
   id="path368"
   style="fill:#211915" />
	<path
   d="m 3654.816,838.414 h -40.848 V 585.246 c 0,-34.89 16.309,-52.335 48.932,-52.335 h 30.636 c 32.616,0 48.932,17.445 48.932,52.335 V 838.414 H 3701.62 V 726.51 h -46.804 V 838.414 z M 3701.62,689.492 V 587.799 c 0,-11.914 -5.957,-17.871 -17.87,-17.871 h -11.063 c -11.913,0 -17.87,5.957 -17.87,17.871 v 101.692 h 46.803 z"
   id="path370"
   style="fill:#211915" />
	<path
   d="M 3863.303,680.557 V 532.911 h 40.847 v 305.503 h -40.847 V 777.569 L 3819.477,638.433 V 838.414 H 3778.63 V 532.911 h 40.847 l 43.826,147.646 z"
   id="path372"
   style="fill:#211915" />
	<path
   d="M 3942.442,838.414 V 532.911 h 101.267 v 37.018 h -60.42 v 92.757 h 53.612 v 37.018 h -53.612 v 101.693 h 60.42 v 37.018 h -101.267 z"
   id="path374"
   style="fill:#211915" />
	<path
   d="m 4156.035,712.468 37.869,-179.558 h 45.102 v 305.503 h -40.847 l 4.255,-199.981 -30.636,144.668 h -31.486 l -30.636,-144.667 4.255,199.981 h -40.847 V 532.911 h 45.102 l 37.869,179.557 z"
   id="path376"
   style="fill:#211915" />
	<path
   d="m 4324.528,838.414 c -32.909,0 -49.357,-17.299 -49.357,-51.91 V 585.246 c 0,-34.89 16.309,-52.335 48.932,-52.335 h 39.146 c 32.616,0 48.932,17.445 48.932,52.335 v 201.258 c 0,34.611 -16.455,51.91 -49.357,51.91 h -38.296 z m 9.786,-37.018 h 20.85 c 10.776,0 16.168,-5.957 16.168,-17.871 V 587.799 c 0,-11.914 -6.103,-17.871 -18.296,-17.871 h -19.147 c -11.913,0 -17.87,5.957 -17.87,17.871 v 195.726 c 0,11.914 6.096,17.871 18.295,17.871 z"
   id="path378"
   style="fill:#211915" />
	<path
   d="m 4526.634,615.031 v -26.806 c 0,-12.193 -5.957,-18.296 -17.87,-18.296 h -6.383 c -11.635,0 -17.445,6.103 -17.445,18.296 v 50.634 c 0,5.677 1.131,9.507 3.404,11.488 2.267,1.988 5.957,4.541 11.062,7.659 l 38.72,20.849 c 8.51,4.827 14.533,8.583 18.084,11.275 3.543,2.699 6.309,5.957 8.297,9.787 1.981,3.829 2.979,11.136 2.979,21.913 v 65.101 c 0,34.325 -16.455,51.484 -49.357,51.484 h -25.104 c -32.624,0 -48.932,-18.722 -48.932,-56.165 v -15.318 h 40.847 v 16.594 c 0,11.914 6.097,17.871 18.296,17.871 h 7.233 c 10.777,0 16.169,-5.957 16.169,-17.871 v -51.91 c 0,-5.671 -1.137,-9.5 -3.403,-11.488 -2.274,-1.981 -5.957,-4.534 -11.063,-7.659 l -38.72,-21.7 c -8.51,-4.534 -14.68,-8.363 -18.509,-11.488 -3.829,-3.118 -6.595,-7.16 -8.297,-12.126 -1.702,-4.959 -2.553,-11.415 -2.553,-19.36 v -62.547 c 0,-34.89 16.308,-52.335 48.932,-52.335 h 25.529 c 32.616,0 48.932,17.445 48.932,52.335 v 29.785 h -40.848 z"
   id="path380"
   style="fill:#211915" />
	<path
   d="m 3444.089,1236.933 h 34.146 c 15.531,0 23.306,-9.392 23.306,-28.184 v -313.82 h 52.032 v 323.576 c 0,43.725 -20.054,65.583 -60.162,65.583 h -49.322 v -47.155 z"
   id="path382"
   style="fill:#211915" />
	<path
   d="m 3771.453,894.929 v 315.446 c 0,49.145 -20.96,73.712 -62.872,73.712 h -43.902 c -41.557,0 -62.33,-24.746 -62.33,-74.254 V 894.929 h 52.032 v 316.53 c 0,16.988 7.588,25.474 22.764,25.474 h 21.138 c 14.093,0 21.139,-8.486 21.139,-25.474 v -316.53 h 52.031 z"
   id="path384"
   style="fill:#211915" />
	<path
   d="M 3928.088,1083.004 V 894.929 h 52.032 v 389.158 h -52.032 v -77.506 l -55.826,-177.235 v 254.742 H 3820.23 V 894.929 h 52.032 l 55.826,188.075 z"
   id="path386"
   style="fill:#211915" />
	<path
   d="m 4111.823,942.083 v 342.004 h -52.032 V 942.083 h -49.864 v -47.154 h 151.761 v 47.154 h -49.865 z"
   id="path388"
   style="fill:#211915" />
	<path
   d="m 4251.654,1284.087 c -41.921,0 -62.873,-22.036 -62.873,-66.125 V 961.595 c 0,-44.444 20.774,-66.667 62.331,-66.667 h 49.864 c 41.548,0 62.33,22.222 62.33,66.667 v 256.367 c 0,44.089 -20.96,66.125 -62.872,66.125 h -48.78 z m 12.466,-47.154 h 26.559 c 13.728,0 20.596,-7.588 20.596,-22.764 V 964.847 c 0,-15.176 -7.774,-22.764 -23.306,-22.764 h -24.391 c -15.176,0 -22.764,7.588 -22.764,22.764 v 249.321 c 0,15.177 7.766,22.765 23.306,22.765 z"
   id="path390"
   style="fill:#211915" />
	<path
   d="m 4509.103,999.535 v -34.146 c 0,-15.532 -7.589,-23.306 -22.765,-23.306 h -8.13 c -14.82,0 -22.223,7.774 -22.223,23.306 v 64.498 c 0,7.232 1.44,12.111 4.337,14.634 2.888,2.532 7.588,5.784 14.092,9.756 l 49.322,26.559 c 10.84,6.148 18.513,10.933 23.035,14.363 4.514,3.438 8.037,7.588 10.569,12.466 2.523,4.878 3.794,14.185 3.794,27.913 v 82.926 c 0,43.725 -20.961,65.583 -62.873,65.583 h -31.978 c -41.557,0 -62.331,-23.848 -62.331,-71.544 v -19.512 h 52.032 v 21.138 c 0,15.176 7.767,22.764 23.307,22.764 h 9.214 c 13.729,0 20.597,-7.588 20.597,-22.764 v -66.125 c 0,-7.224 -1.448,-12.102 -4.337,-14.634 -2.896,-2.524 -7.588,-5.776 -14.092,-9.756 l -49.322,-27.642 c -10.84,-5.775 -18.699,-10.654 -23.577,-14.634 -4.878,-3.972 -8.4,-9.121 -10.569,-15.447 -2.168,-6.318 -3.252,-14.541 -3.252,-24.661 v -79.674 c 0,-44.444 20.774,-66.667 62.331,-66.667 h 32.52 c 41.548,0 62.331,22.222 62.331,66.667 v 37.94 h -52.032 z"
   id="path392"
   style="fill:#211915" />
</g>
<g
   id="g3">
	<g
   id="g5">
		<linearGradient
   x1="2180.7295"
   y1="461.38959"
   x2="2180.7295"
   y2="1642.9561"
   id="SVGID_1_"
   gradientUnits="userSpaceOnUse">
			<stop
   id="stop8"
   style="stop-color:#c84425;stop-opacity:1"
   offset="0.40000001" />
			<stop
   id="stop10"
   style="stop-color:#c74124;stop-opacity:1"
   offset="0.69889998" />
			<stop
   id="stop12"
   style="stop-color:#c33921;stop-opacity:1"
   offset="0.87849998" />
			<stop
   id="stop14"
   style="stop-color:#bd2e1c;stop-opacity:1"
   offset="1" />
		</linearGradient>
		<polygon
   points="2122.401,503.891 1940.712,1157.545 2087.366,1685.457 2420.747,503.891 "
   id="polygon16"
   style="fill:url(#SVGID_1_)" />
		<linearGradient
   x1="1700.6133"
   y1="510.09381"
   x2="1700.6133"
   y2="1681.2954"
   id="SVGID_2_"
   gradientUnits="userSpaceOnUse">
			<stop
   id="stop19"
   style="stop-color:#db8f5c;stop-opacity:1"
   offset="0.40000001" />
			<stop
   id="stop21"
   style="stop-color:#da8d59;stop-opacity:1"
   offset="0.65979999" />
			<stop
   id="stop23"
   style="stop-color:#d88751;stop-opacity:1"
   offset="0.8161" />
			<stop
   id="stop25"
   style="stop-color:#d57d43;stop-opacity:1"
   offset="0.94450003" />
			<stop
   id="stop27"
   style="stop-color:#d3763a;stop-opacity:1"
   offset="1" />
		</linearGradient>
		<polygon
   points="1759.069,503.891 1460.515,503.891 1793.999,1685.457 1940.712,1157.545 "
   id="polygon29"
   style="fill:url(#SVGID_2_)" />
		<linearGradient
   x1="1940.6826"
   y1="1685.457"
   x2="1940.6826"
   y2="1157.5449"
   id="SVGID_3_"
   gradientUnits="userSpaceOnUse">
			<stop
   id="stop32"
   style="stop-color:#ab261d;stop-opacity:1"
   offset="0" />
			<stop
   id="stop34"
   style="stop-color:#91271d;stop-opacity:1"
   offset="1" />
		</linearGradient>
		<polygon
   points="1940.712,1157.545 1793.999,1685.457 2087.366,1685.457 "
   id="polygon36"
   style="fill:url(#SVGID_3_)" />
	</g>
	<g
   id="g38">
		<g
   id="g40">
			<linearGradient
   x1="639.86041"
   y1="958.79102"
   x2="639.86041"
   y2="764.2832"
   id="SVGID_4_"
   gradientUnits="userSpaceOnUse">
				<stop
   id="stop43"
   style="stop-color:#70aa41;stop-opacity:1"
   offset="0.40000001" />
				<stop
   id="stop45"
   style="stop-color:#6da941;stop-opacity:1"
   offset="0.69889998" />
				<stop
   id="stop47"
   style="stop-color:#65a442;stop-opacity:1"
   offset="0.87849998" />
				<stop
   id="stop49"
   style="stop-color:#5a9e43;stop-opacity:1"
   offset="1" />
			</linearGradient>
			<rect
   width="273.914"
   height="194.508"
   x="502.90302"
   y="764.28302"
   id="rect51"
   style="fill:url(#SVGID_4_)" />
			<linearGradient
   x1="639.86041"
   y1="1221.7773"
   x2="639.86041"
   y2="1425.0938"
   id="SVGID_5_"
   gradientUnits="userSpaceOnUse">
				<stop
   id="stop54"
   style="stop-color:#7fb03e;stop-opacity:1"
   offset="0.40000001" />
				<stop
   id="stop56"
   style="stop-color:#7dad3e;stop-opacity:1"
   offset="0.71880001" />
				<stop
   id="stop58"
   style="stop-color:#75a53f;stop-opacity:1"
   offset="0.91039997" />
				<stop
   id="stop60"
   style="stop-color:#6f9e3f;stop-opacity:1"
   offset="1" />
			</linearGradient>
			<rect
   width="273.914"
   height="203.31599"
   x="502.90302"
   y="1221.777"
   id="rect62"
   style="fill:url(#SVGID_5_)" />
		</g>
		<linearGradient
   x1="1337.4424"
   y1="1090.2842"
   x2="776.81738"
   y2="1090.2842"
   id="SVGID_6_"
   gradientUnits="userSpaceOnUse">
			<stop
   id="stop65"
   style="stop-color:#98bc51;stop-opacity:1"
   offset="0.40000001" />
			<stop
   id="stop67"
   style="stop-color:#95bb52;stop-opacity:1"
   offset="0.71880001" />
			<stop
   id="stop69"
   style="stop-color:#8db856;stop-opacity:1"
   offset="0.91039997" />
			<stop
   id="stop71"
   style="stop-color:#86b55a;stop-opacity:1"
   offset="1" />
		</linearGradient>
		<rect
   width="560.625"
   height="262.98599"
   x="776.81702"
   y="958.79102"
   id="rect73"
   style="fill:url(#SVGID_6_)" />
		<g
   id="g75">
			<linearGradient
   x1="639.86041"
   y1="501.29099"
   x2="639.86041"
   y2="764.2832"
   id="SVGID_7_"
   gradientUnits="userSpaceOnUse">
				<stop
   id="stop78"
   style="stop-color:#559442;stop-opacity:1"
   offset="0" />
				<stop
   id="stop80"
   style="stop-color:#345b31;stop-opacity:1"
   offset="1" />
			</linearGradient>
			<polygon
   points="502.903,764.283 776.817,764.283 776.817,501.291 "
   id="polygon82"
   style="fill:url(#SVGID_7_)" />
			<linearGradient
   x1="639.86041"
   y1="1688.0957"
   x2="639.86041"
   y2="1425.0938"
   id="SVGID_8_"
   gradientUnits="userSpaceOnUse">
				<stop
   id="stop85"
   style="stop-color:#5c9541;stop-opacity:1"
   offset="0" />
				<stop
   id="stop87"
   style="stop-color:#445b2e;stop-opacity:1"
   offset="1" />
			</linearGradient>
			<polygon
   points="776.817,1425.094 502.903,1425.094 776.817,1688.096 "
   id="polygon89"
   style="fill:url(#SVGID_8_)" />
			<linearGradient
   x1="639.86041"
   y1="1221.7773"
   x2="639.86041"
   y2="958.79102"
   id="SVGID_9_"
   gradientUnits="userSpaceOnUse">
				<stop
   id="stop92"
   style="stop-color:#559442;stop-opacity:1"
   offset="0" />
				<stop
   id="stop94"
   style="stop-color:#345b31;stop-opacity:1"
   offset="1" />
			</linearGradient>
			<rect
   width="273.914"
   height="262.98599"
   x="502.90302"
   y="958.79102"
   id="rect96"
   style="fill:url(#SVGID_9_)" />
		</g>
		<linearGradient
   x1="1337.4424"
   y1="632.78711"
   x2="776.81738"
   y2="632.78717"
   id="SVGID_10_"
   gradientUnits="userSpaceOnUse">
			<stop
   id="stop99"
   style="stop-color:#8cb861;stop-opacity:1"
   offset="0.40000001" />
			<stop
   id="stop101"
   style="stop-color:#8bb864;stop-opacity:1"
   offset="0.66500002" />
			<stop
   id="stop103"
   style="stop-color:#89b86c;stop-opacity:1"
   offset="0.82429999" />
			<stop
   id="stop105"
   style="stop-color:#84b77a;stop-opacity:1"
   offset="0.95520002" />
			<stop
   id="stop107"
   style="stop-color:#82b781;stop-opacity:1"
   offset="1" />
		</linearGradient>
		<path
   d="m 1266.8,501.291 0,0 H 776.817 v 262.992 h 560.625 v -199.16 c -2.265,-35.621 -33.011,-63.832 -70.642,-63.832 z"
   id="path109"
   style="fill:url(#SVGID_10_)" />
		<linearGradient
   x1="1337.4424"
   y1="1556.5947"
   x2="776.81738"
   y2="1556.5947"
   id="SVGID_11_"
   gradientUnits="userSpaceOnUse">
			<stop
   id="stop112"
   style="stop-color:#bfcd2e;stop-opacity:1"
   offset="0.40000001" />
			<stop
   id="stop114"
   style="stop-color:#bccc2f;stop-opacity:1"
   offset="0.64459997" />
			<stop
   id="stop116"
   style="stop-color:#b4c833;stop-opacity:1"
   offset="0.79170001" />
			<stop
   id="stop118"
   style="stop-color:#a6c13a;stop-opacity:1"
   offset="0.9127" />
			<stop
   id="stop120"
   style="stop-color:#96ba42;stop-opacity:1"
   offset="1" />
		</linearGradient>
		<path
   d="M 1337.442,1627.381 V 1425.094 H 776.817 v 263.002 h 493.775 c 34.989,-1.731 63.274,-27.676 66.85,-60.715 z"
   id="path122"
   style="fill:url(#SVGID_11_)" />
	</g>
	<g
   id="g124">
		<linearGradient
   x1="2634.3555"
   y1="958.79102"
   x2="2634.3555"
   y2="764.08197"
   id="SVGID_12_"
   gradientUnits="userSpaceOnUse">
			<stop
   id="stop127"
   style="stop-color:#c42544;stop-opacity:1"
   offset="0.40000001" />
			<stop
   id="stop129"
   style="stop-color:#c12342;stop-opacity:1"
   offset="0.72479999" />
			<stop
   id="stop131"
   style="stop-color:#b91b3b;stop-opacity:1"
   offset="0.91979998" />
			<stop
   id="stop133"
   style="stop-color:#b31636;stop-opacity:1"
   offset="1" />
		</linearGradient>
		<rect
   width="273.73999"
   height="194.709"
   x="2497.4851"
   y="764.08197"
   id="rect135"
   style="fill:url(#SVGID_12_)" />
		<linearGradient
   x1="2634.3555"
   y1="1221.7773"
   x2="2634.3555"
   y2="1425.0938"
   id="SVGID_13_"
   gradientUnits="userSpaceOnUse">
			<stop
   id="stop138"
   style="stop-color:#c42737;stop-opacity:1"
   offset="0.40000001" />
			<stop
   id="stop140"
   style="stop-color:#c32435;stop-opacity:1"
   offset="0.70819998" />
			<stop
   id="stop142"
   style="stop-color:#bf1c2d;stop-opacity:1"
   offset="0.8933" />
			<stop
   id="stop144"
   style="stop-color:#bb1324;stop-opacity:1"
   offset="1" />
		</linearGradient>
		<rect
   width="273.73999"
   height="203.31599"
   x="2497.4851"
   y="1221.777"
   id="rect146"
   style="fill:url(#SVGID_13_)" />
		<linearGradient
   x1="3331.9307"
   y1="1090.2842"
   x2="2771.2256"
   y2="1090.2842"
   id="SVGID_14_"
   gradientUnits="userSpaceOnUse">
			<stop
   id="stop149"
   style="stop-color:#d47b37;stop-opacity:1"
   offset="0.40000001" />
			<stop
   id="stop151"
   style="stop-color:#d37837;stop-opacity:1"
   offset="0.63410002" />
			<stop
   id="stop153"
   style="stop-color:#d17037;stop-opacity:1"
   offset="0.77490002" />
			<stop
   id="stop155"
   style="stop-color:#ce6236;stop-opacity:1"
   offset="0.89060003" />
			<stop
   id="stop157"
   style="stop-color:#c94e36;stop-opacity:1"
   offset="0.99269998" />
			<stop
   id="stop159"
   style="stop-color:#c94c36;stop-opacity:1"
   offset="1" />
		</linearGradient>
		<rect
   width="560.70502"
   height="262.98599"
   x="2771.2261"
   y="958.79102"
   id="rect161"
   style="fill:url(#SVGID_14_)" />
		<linearGradient
   x1="2634.3555"
   y1="501.29099"
   x2="2634.3555"
   y2="764.08197"
   id="SVGID_15_"
   gradientUnits="userSpaceOnUse">
			<stop
   id="stop164"
   style="stop-color:#bb131d;stop-opacity:1"
   offset="0" />
			<stop
   id="stop166"
   style="stop-color:#801e1a;stop-opacity:1"
   offset="1" />
		</linearGradient>
		<polygon
   points="2497.485,764.082 2771.226,764.082 2771.226,501.291 "
   id="polygon168"
   style="fill:url(#SVGID_15_)" />
		<linearGradient
   x1="2634.3555"
   y1="1688.0957"
   x2="2634.3555"
   y2="1425.0938"
   id="SVGID_16_"
   gradientUnits="userSpaceOnUse">
			<stop
   id="stop171"
   style="stop-color:#bb1324;stop-opacity:1"
   offset="0" />
			<stop
   id="stop173"
   style="stop-color:#801e26;stop-opacity:1"
   offset="1" />
		</linearGradient>
		<polygon
   points="2771.226,1425.094 2497.485,1425.094 2771.226,1688.096 "
   id="polygon175"
   style="fill:url(#SVGID_16_)" />
		<linearGradient
   x1="2634.3555"
   y1="1221.7773"
   x2="2634.3555"
   y2="958.79102"
   id="SVGID_17_"
   gradientUnits="userSpaceOnUse">
			<stop
   id="stop178"
   style="stop-color:#bb122d;stop-opacity:1"
   offset="0" />
			<stop
   id="stop180"
   style="stop-color:#801e26;stop-opacity:1"
   offset="1" />
		</linearGradient>
		<rect
   width="273.73999"
   height="262.98599"
   x="2497.4851"
   y="958.79102"
   id="rect182"
   style="fill:url(#SVGID_17_)" />
		<linearGradient
   x1="3331.9307"
   y1="1556.5947"
   x2="2771.2256"
   y2="1556.5947"
   id="SVGID_18_"
   gradientUnits="userSpaceOnUse">
			<stop
   id="stop185"
   style="stop-color:#c84451;stop-opacity:1"
   offset="0.40000001" />
			<stop
   id="stop187"
   style="stop-color:#c8444e;stop-opacity:1"
   offset="0.68330002" />
			<stop
   id="stop189"
   style="stop-color:#c84446;stop-opacity:1"
   offset="0.85339999" />
			<stop
   id="stop191"
   style="stop-color:#c84438;stop-opacity:1"
   offset="0.99349999" />
			<stop
   id="stop193"
   style="stop-color:#c84437;stop-opacity:1"
   offset="1" />
		</linearGradient>
		<path
   d="m 3331.931,1628.428 v -203.334 h -560.705 v 263.002 h 494.053 c 34.595,-1.731 62.558,-27.117 66.652,-59.668 z"
   id="path195"
   style="fill:url(#SVGID_18_)" />
		<linearGradient
   x1="3331.9307"
   y1="632.68652"
   x2="2771.2256"
   y2="632.68658"
   id="SVGID_19_"
   gradientUnits="userSpaceOnUse">
			<stop
   id="stop198"
   style="stop-color:#da8d3e;stop-opacity:1"
   offset="0.40000001" />
			<stop
   id="stop200"
   style="stop-color:#d98a3d;stop-opacity:1"
   offset="0.64859998" />
			<stop
   id="stop202"
   style="stop-color:#d7823b;stop-opacity:1"
   offset="0.79809999" />
			<stop
   id="stop204"
   style="stop-color:#d37437;stop-opacity:1"
   offset="0.921" />
			<stop
   id="stop206"
   style="stop-color:#cf6633;stop-opacity:1"
   offset="1" />
		</linearGradient>
		<path
   d="m 3261.759,501.291 0,0 h -490.533 v 262.791 h 560.705 V 560.367 c -4.565,-33.303 -34.217,-59.076 -70.172,-59.076 z"
   id="path208"
   style="fill:url(#SVGID_19_)" />
	</g>
	<g
   id="g210">
		<linearGradient
   x1="724.08893"
   y1="2997.2305"
   x2="724.08893"
   y2="2734.8496"
   id="SVGID_20_"
   gradientUnits="userSpaceOnUse">
			<stop
   id="stop213"
   style="stop-color:#447879;stop-opacity:1"
   offset="0" />
			<stop
   id="stop215"
   style="stop-color:#2d515a;stop-opacity:1"
   offset="1" />
		</linearGradient>
		<polygon
   points="860.948,2997.23 860.948,2734.85 587.229,2734.85 "
   id="polygon217"
   style="fill:url(#SVGID_20_)" />
		<linearGradient
   x1="1299.6943"
   y1="2866.167"
   x2="860.94818"
   y2="2866.167"
   id="SVGID_21_"
   gradientUnits="userSpaceOnUse">
			<stop
   id="stop220"
   style="stop-color:#95cbf1;stop-opacity:1"
   offset="0.40000001" />
			<stop
   id="stop222"
   style="stop-color:#92c9ef;stop-opacity:1"
   offset="0.62260002" />
			<stop
   id="stop224"
   style="stop-color:#8ac4ea;stop-opacity:1"
   offset="0.75639999" />
			<stop
   id="stop226"
   style="stop-color:#7cbbe1;stop-opacity:1"
   offset="0.86680001" />
			<stop
   id="stop228"
   style="stop-color:#68aed5;stop-opacity:1"
   offset="0.96380001" />
			<stop
   id="stop230"
   style="stop-color:#5ea8cf;stop-opacity:1"
   offset="1" />
		</linearGradient>
		<path
   d="m 1299.694,2929.602 0,0 V 2734.85 H 860.948 v 262.381 l 0.217,0.254 h 371.082 c 37.553,-1.714 67.447,-31.436 67.447,-67.883 z"
   id="path232"
   style="fill:url(#SVGID_21_)" />
		<linearGradient
   x1="724.08893"
   y1="1811.8301"
   x2="724.08881"
   y2="2734.8496"
   id="SVGID_22_"
   gradientUnits="userSpaceOnUse">
			<stop
   id="stop235"
   style="stop-color:#60a98c;stop-opacity:1"
   offset="0.38789999" />
			<stop
   id="stop237"
   style="stop-color:#5fa68a;stop-opacity:1"
   offset="0.63950002" />
			<stop
   id="stop239"
   style="stop-color:#5a9e84;stop-opacity:1"
   offset="0.79070002" />
			<stop
   id="stop241"
   style="stop-color:#52907a;stop-opacity:1"
   offset="0.91500002" />
			<stop
   id="stop243"
   style="stop-color:#49816f;stop-opacity:1"
   offset="1" />
		</linearGradient>
		<path
   d="M 794.134,1811.83 H 587.229 v 923.02 h 273.719 v -863.898 c -4.347,-32.372 -32.322,-57.524 -66.814,-59.122 z"
   id="path245"
   style="fill:url(#SVGID_22_)" />
	</g>
	<g
   id="g247">
		<linearGradient
   x1="1478.4404"
   y1="2404.3291"
   x2="1895.71"
   y2="2404.3291"
   id="SVGID_23_"
   gradientUnits="userSpaceOnUse">
			<stop
   id="stop250"
   style="stop-color:#bd9fc7;stop-opacity:1"
   offset="0.40000001" />
			<stop
   id="stop252"
   style="stop-color:#ba9dc6;stop-opacity:1"
   offset="0.67049998" />
			<stop
   id="stop254"
   style="stop-color:#b297c3;stop-opacity:1"
   offset="0.83319998" />
			<stop
   id="stop256"
   style="stop-color:#a48dbe;stop-opacity:1"
   offset="0.96689999" />
			<stop
   id="stop258"
   style="stop-color:#9f8abc;stop-opacity:1"
   offset="1" />
		</linearGradient>
		<polygon
   points="1478.44,2535.154 1550.739,2535.154 1823.364,2535.154 1895.71,2535.154 1895.71,2273.504 1478.44,2273.504 "
   id="polygon260"
   style="fill:url(#SVGID_23_)" />
		<linearGradient
   x1="2032.0684"
   y1="2535.1543"
   x2="2032.0684"
   y2="2273.5039"
   id="SVGID_24_"
   gradientUnits="userSpaceOnUse">
			<stop
   id="stop263"
   style="stop-color:#7c3f8b;stop-opacity:1"
   offset="0" />
			<stop
   id="stop265"
   style="stop-color:#662463;stop-opacity:1"
   offset="1" />
		</linearGradient>
		<polygon
   points="2168.427,2273.504 1895.71,2273.504 1895.71,2535.154 "
   id="polygon267"
   style="fill:url(#SVGID_24_)" />
		<linearGradient
   x1="1342.1504"
   y1="2535.1543"
   x2="1342.1504"
   y2="2273.5039"
   id="SVGID_25_"
   gradientUnits="userSpaceOnUse">
			<stop
   id="stop270"
   style="stop-color:#8a3c89;stop-opacity:1"
   offset="0" />
			<stop
   id="stop272"
   style="stop-color:#7f216e;stop-opacity:1"
   offset="1" />
		</linearGradient>
		<polygon
   points="1478.44,2535.154 1478.44,2273.504 1205.86,2273.504 "
   id="polygon274"
   style="fill:url(#SVGID_25_)" />
		<linearGradient
   x1="1687.0518"
   y1="2998.9102"
   x2="1687.0518"
   y2="2535.1543"
   id="SVGID_26_"
   gradientUnits="userSpaceOnUse">
			<stop
   id="stop277"
   style="stop-color:#7b5498;stop-opacity:1"
   offset="0.38789999" />
			<stop
   id="stop279"
   style="stop-color:#785498;stop-opacity:1"
   offset="0.69279999" />
			<stop
   id="stop281"
   style="stop-color:#705398;stop-opacity:1"
   offset="0.87599999" />
			<stop
   id="stop283"
   style="stop-color:#655298;stop-opacity:1"
   offset="1" />
		</linearGradient>
		<path
   d="m 1823.364,2935.625 v -400.471 h -272.625 v 463.756 h 205.754 c 35.77,-1.816 64.445,-29.066 66.871,-63.285 z"
   id="path285"
   style="fill:url(#SVGID_26_)" />
		<linearGradient
   x1="2031.9707"
   y1="1817.4707"
   x2="2031.9707"
   y2="2273.5039"
   id="SVGID_27_"
   gradientUnits="userSpaceOnUse">
			<stop
   id="stop288"
   style="stop-color:#8b64a2;stop-opacity:1"
   offset="0.38789999" />
			<stop
   id="stop290"
   style="stop-color:#8961a0;stop-opacity:1"
   offset="0.69739997" />
			<stop
   id="stop292"
   style="stop-color:#84599b;stop-opacity:1"
   offset="0.88330001" />
			<stop
   id="stop294"
   style="stop-color:#7e4f94;stop-opacity:1"
   offset="1" />
		</linearGradient>
		<path
   d="m 2109.88,1817.471 h -214.17 v 456.033 h 272.521 v -393.715 c -2.183,-31.43 -26.64,-57.002 -58.351,-62.318 z"
   id="path296"
   style="fill:url(#SVGID_27_)" />
		<linearGradient
   x1="1342.1504"
   y1="1817.4707"
   x2="1342.1504"
   y2="2273.5039"
   id="SVGID_28_"
   gradientUnits="userSpaceOnUse">
			<stop
   id="stop299"
   style="stop-color:#ab649f;stop-opacity:1"
   offset="0.38789999" />
			<stop
   id="stop301"
   style="stop-color:#a9619e;stop-opacity:1"
   offset="0.68049997" />
			<stop
   id="stop303"
   style="stop-color:#a45999;stop-opacity:1"
   offset="0.8563" />
			<stop
   id="stop305"
   style="stop-color:#9a4b91;stop-opacity:1"
   offset="1" />
		</linearGradient>
		<path
   d="m 1274.479,1817.471 c -35.654,0.867 -64.756,26.996 -68.619,60.408 v 395.625 h 272.58 v -456.033 h -203.961 z"
   id="path307"
   style="fill:url(#SVGID_28_)" />
	</g>
	<g
   id="g309">
		<linearGradient
   x1="2827.4287"
   y1="1833.9697"
   x2="2832.6802"
   y2="2984.6052"
   id="SVGID_29_"
   gradientUnits="userSpaceOnUse">
			<stop
   id="stop312"
   style="stop-color:#ce8eb2;stop-opacity:1"
   offset="0.40000001" />
			<stop
   id="stop314"
   style="stop-color:#ce8bb0;stop-opacity:1"
   offset="0.66240001" />
			<stop
   id="stop316"
   style="stop-color:#cf83a7;stop-opacity:1"
   offset="0.82010001" />
			<stop
   id="stop318"
   style="stop-color:#d0759a;stop-opacity:1"
   offset="0.94980001" />
			<stop
   id="stop320"
   style="stop-color:#d16d92;stop-opacity:1"
   offset="1" />
		</linearGradient>
		<polygon
   points="2669.757,1813.939 2624.663,1813.939 2624.663,2316.541 2996.435,2999.945 3035.401,2999.771 3035.401,2492.314 "
   id="polygon322"
   style="fill:url(#SVGID_29_)" />
		<g
   id="g324">
			<linearGradient
   x1="3308.7158"
   y1="2746.1299"
   x2="3035.4014"
   y2="2746.1299"
   id="SVGID_30_"
   gradientUnits="userSpaceOnUse">
				<stop
   id="stop327"
   style="stop-color:#b20763;stop-opacity:1"
   offset="0" />
				<stop
   id="stop329"
   style="stop-color:#771952;stop-opacity:1"
   offset="1" />
			</linearGradient>
			<polygon
   points="3308.716,2999.945 3035.401,2492.314 3035.401,2999.771 "
   id="polygon331"
   style="fill:url(#SVGID_30_)" />
			<linearGradient
   x1="2350.9678"
   y1="2065.2402"
   x2="2624.6631"
   y2="2065.2402"
   id="SVGID_31_"
   gradientUnits="userSpaceOnUse">
				<stop
   id="stop334"
   style="stop-color:#99176d;stop-opacity:1"
   offset="0" />
				<stop
   id="stop336"
   style="stop-color:#701849;stop-opacity:1"
   offset="1" />
			</linearGradient>
			<polygon
   points="2624.663,2316.541 2624.663,1813.939 2350.968,1813.939 "
   id="polygon338"
   style="fill:url(#SVGID_31_)" />
		</g>
		<linearGradient
   x1="3172.0586"
   y1="1822.5303"
   x2="3172.0586"
   y2="2984.4399"
   id="SVGID_32_"
   gradientUnits="userSpaceOnUse">
			<stop
   id="stop341"
   style="stop-color:#c5245c;stop-opacity:1"
   offset="0.40000001" />
			<stop
   id="stop343"
   style="stop-color:#c32259;stop-opacity:1"
   offset="0.70819998" />
			<stop
   id="stop345"
   style="stop-color:#bb1b51;stop-opacity:1"
   offset="0.8933" />
			<stop
   id="stop347"
   style="stop-color:#b21448;stop-opacity:1"
   offset="1" />
		</linearGradient>
		<path
   d="m 3241.983,1813.646 -206.582,0.139 v 678.529 l 273.314,507.631 V 1870.439 c -5.448,-31.302 -32.905,-55.343 -66.732,-56.793 z"
   id="path349"
   style="fill:url(#SVGID_32_)" />
		<linearGradient
   x1="2487.8159"
   y1="2999.9453"
   x2="2487.8159"
   y2="1813.9395"
   id="SVGID_33_"
   gradientUnits="userSpaceOnUse">
			<stop
   id="stop352"
   style="stop-color:#a63485;stop-opacity:1"
   offset="0.40000001" />
			<stop
   id="stop354"
   style="stop-color:#a53282;stop-opacity:1"
   offset="0.66240001" />
			<stop
   id="stop356"
   style="stop-color:#a22a7a;stop-opacity:1"
   offset="0.82010001" />
			<stop
   id="stop358"
   style="stop-color:#9c1d6c;stop-opacity:1"
   offset="0.94980001" />
			<stop
   id="stop360"
   style="stop-color:#991664;stop-opacity:1"
   offset="1" />
		</linearGradient>
		<path
   d="m 2350.968,1813.939 v 1127.182 c 4.242,31.021 30.227,55.467 62.824,58.709 l 210.871,0.115 v -683.404 l -273.695,-502.602 z"
   id="path362"
   style="fill:url(#SVGID_33_)" />
	</g>
</g></svg>