<?xml version="1.0" encoding="utf-8"?>
<!-- Generator: Adobe Illustrator 16.0.4, SVG Export Plug-In . SVG Version: 6.00 Build 0)  -->
<!DOCTYPE svg PUBLIC "-//W3C//DTD SVG 1.1//EN" "http://www.w3.org/Graphics/SVG/1.1/DTD/svg11.dtd">
<svg version="1.1" id="Capa_1" xmlns="http://www.w3.org/2000/svg" xmlns:xlink="http://www.w3.org/1999/xlink" x="0px" y="0px"
	 width="141.091px" height="141.732px" viewBox="0 0 141.091 141.732" enable-background="new 0 0 141.091 141.732"
	 xml:space="preserve">
<path fill="#F4E359" d="M141.091,77.412c0-12.027-3.436-23.256-9.387-32.774c1.652,5.576,2.541,11.478,2.541,17.585
	c0,9.131-1.977,17.801-5.533,25.609c-4.12,25.066-22.824,45.271-47.187,51.732C114.694,137.963,141.091,110.746,141.091,77.412z"/>
<path fill="#EC7233" d="M18.337,95c-5.945-9.521-9.384-20.75-9.384-32.777c0-8.938,1.899-17.437,5.315-25.12
	C5.332,48.148-0.016,62.182,0,77.459c0.041,35.533,29.075,64.314,64.854,64.273c5.768-0.006,11.354-0.764,16.671-2.168
	c-1.019,0.045-2.048,0.074-3.083,0.074C49.993,139.639,25.978,120.803,18.337,95z"/>
<path fill="#FFFFB4" d="M128.712,87.832c-9.826,21.59-31.7,36.617-57.113,36.617c-22.488,0-42.211-11.771-53.262-29.449
	c7.641,25.803,31.656,44.639,60.105,44.639c1.035,0,2.064-0.029,3.083-0.074C105.888,133.104,124.592,112.898,128.712,87.832z"/>
<path fill="#0C9AC2" d="M64.716,13.038c5.889-0.005,11.59,0.776,17.008,2.233c21.123,1.082,39.474,12.556,49.98,29.367
	c-7.637-25.805-31.654-44.64-60.105-44.64c-25.596,0-47.608,15.252-57.33,37.105C26.128,22.45,44.314,13.064,64.716,13.038z"/>
<path fill="#8AE8FF" d="M81.724,15.271c27.538,7.39,47.812,32.356,47.842,62.05c0.01,3.582-0.289,7.092-0.854,10.512
	c3.557-7.809,5.533-16.479,5.533-25.609c0-6.107-0.889-12.009-2.541-17.585C121.197,27.826,102.847,16.353,81.724,15.271z"/>
<path fill="#C1C93D" d="M18.337,95c-1.646-5.578-2.539-11.484-2.539-17.588c0-34.37,28.048-62.227,62.645-62.227
	c1.104,0,2.195,0.028,3.281,0.085c-5.418-1.457-11.119-2.238-17.008-2.233c-20.401,0.027-38.588,9.413-50.447,24.065
	c-3.416,7.684-5.315,16.183-5.315,25.12C8.953,74.25,12.392,85.479,18.337,95z"/>
<path fill="#FFFFFF" d="M81.724,15.271c-1.086-0.057-2.178-0.085-3.281-0.085c-34.597,0-62.645,27.857-62.645,62.227
	c0,6.104,0.893,12.01,2.539,17.588c11.051,17.678,30.773,29.449,53.262,29.449c25.413,0,47.287-15.027,57.113-36.617
	c0.564-3.42,0.863-6.93,0.854-10.512C129.535,47.627,109.262,22.661,81.724,15.271z"/>
<g>
	<path d="M29.438,74.633c0-8.076,2.381-14.491,7.144-19.244c4.762-4.753,10.527-7.13,17.295-7.13c5.739,0,10.828,2.213,15.265,6.639
		l-7.257,8.171c-2.557-2.254-5.176-3.381-7.857-3.381c-3.134,0-5.759,1.309-7.877,3.925s-3.177,6.126-3.177,10.532
		c0,4.605,0.971,8.191,2.914,10.758c1.942,2.566,4.555,3.85,7.839,3.85c3.333,0,6.266-1.328,8.798-3.98l7.219,8.002
		c-4.262,4.939-9.65,7.408-16.167,7.408c-6.918,0-12.67-2.217-17.258-6.65C31.732,89.098,29.438,82.799,29.438,74.633z"/>
	<path d="M73.512,93l7.52-9.092c3.966,3.229,7.851,4.844,11.654,4.844c3.803,0,5.705-1.178,5.705-3.529
		c0-1.428-1.899-2.893-5.699-4.395c-0.478-0.174-0.842-0.324-1.09-0.449l-6.189-2.592c-2.959-1.176-5.364-2.947-7.216-5.312
		c-1.852-2.366-2.777-5.238-2.777-8.619c0-4.369,1.741-8.062,5.227-11.076c3.483-3.014,7.901-4.521,13.253-4.521
		c2.98,0,5.947,0.566,8.902,1.697c2.955,1.132,5.534,2.804,7.738,5.017l-6.6,8.357c-3.438-2.402-6.79-3.617-10.053-3.643
		c-3.489,0-5.233,1.127-5.233,3.381c0,0.976,0.465,1.758,1.396,2.346c0.931,0.59,2.529,1.321,4.794,2.197
		c0.528,0.226,0.943,0.389,1.245,0.488l6.052,2.365c6.499,2.553,9.761,7.123,9.786,13.711c0,4.459-1.76,8.24-5.279,11.346
		c-3.519,3.107-8.284,4.66-14.295,4.66c-3.263,0-6.566-0.609-9.912-1.824C79.095,97.143,76.119,95.355,73.512,93z"/>
</g>
</svg>
